<mxfile host="app.diagrams.net" agent="Mozilla/5.0 (Windows NT 10.0; Win64; x64) AppleWebKit/537.36 (KHTML, like Gecko) Chrome/131.0.0.0 Safari/537.36 Edg/131.0.0.0" version="25.0.1">
  <diagram name="Página-1" id="WKtPSbxFhOMiMSl4u4xf">
    <mxGraphModel dx="1042" dy="565" grid="1" gridSize="10" guides="1" tooltips="1" connect="1" arrows="1" fold="1" page="1" pageScale="1" pageWidth="827" pageHeight="1169" math="0" shadow="0">
      <root>
        <mxCell id="0" />
        <mxCell id="1" parent="0" />
        <mxCell id="TV2DljBd1xC7g11wn9Fv-1" value="" style="ellipse;whiteSpace=wrap;html=1;aspect=fixed;fillColor=#d5e8d4;strokeColor=#82b366;" vertex="1" parent="1">
          <mxGeometry x="130" y="30" width="50" height="50" as="geometry" />
        </mxCell>
        <mxCell id="TV2DljBd1xC7g11wn9Fv-7" style="edgeStyle=orthogonalEdgeStyle;rounded=0;orthogonalLoop=1;jettySize=auto;html=1;exitX=0.5;exitY=1;exitDx=0;exitDy=0;entryX=0.5;entryY=0;entryDx=0;entryDy=0;" edge="1" parent="1" source="TV2DljBd1xC7g11wn9Fv-2" target="TV2DljBd1xC7g11wn9Fv-6">
          <mxGeometry relative="1" as="geometry" />
        </mxCell>
        <mxCell id="TV2DljBd1xC7g11wn9Fv-2" value="Retorno = Retorno_Num(Num)" style="rounded=0;whiteSpace=wrap;html=1;fillColor=#e1d5e7;strokeColor=#9673a6;" vertex="1" parent="1">
          <mxGeometry x="60" y="166" width="190" height="40" as="geometry" />
        </mxCell>
        <mxCell id="TV2DljBd1xC7g11wn9Fv-5" style="edgeStyle=orthogonalEdgeStyle;rounded=0;orthogonalLoop=1;jettySize=auto;html=1;exitX=0.5;exitY=1;exitDx=0;exitDy=0;exitPerimeter=0;entryX=0.5;entryY=0;entryDx=0;entryDy=0;" edge="1" parent="1" source="TV2DljBd1xC7g11wn9Fv-3" target="TV2DljBd1xC7g11wn9Fv-2">
          <mxGeometry relative="1" as="geometry" />
        </mxCell>
        <mxCell id="TV2DljBd1xC7g11wn9Fv-3" value="Num" style="shape=card;whiteSpace=wrap;html=1;fillColor=#fff2cc;strokeColor=#d6b656;" vertex="1" parent="1">
          <mxGeometry x="120" y="100" width="70" height="50" as="geometry" />
        </mxCell>
        <mxCell id="TV2DljBd1xC7g11wn9Fv-4" style="edgeStyle=orthogonalEdgeStyle;rounded=0;orthogonalLoop=1;jettySize=auto;html=1;exitX=0.5;exitY=1;exitDx=0;exitDy=0;entryX=0.5;entryY=0;entryDx=0;entryDy=0;entryPerimeter=0;" edge="1" parent="1" source="TV2DljBd1xC7g11wn9Fv-1" target="TV2DljBd1xC7g11wn9Fv-3">
          <mxGeometry relative="1" as="geometry" />
        </mxCell>
        <mxCell id="TV2DljBd1xC7g11wn9Fv-9" style="edgeStyle=orthogonalEdgeStyle;rounded=0;orthogonalLoop=1;jettySize=auto;html=1;exitX=0.5;exitY=0;exitDx=0;exitDy=0;entryX=0.5;entryY=0;entryDx=0;entryDy=0;" edge="1" parent="1" source="TV2DljBd1xC7g11wn9Fv-6" target="TV2DljBd1xC7g11wn9Fv-8">
          <mxGeometry relative="1" as="geometry">
            <Array as="points">
              <mxPoint x="155" y="240" />
              <mxPoint x="155" y="240" />
            </Array>
          </mxGeometry>
        </mxCell>
        <mxCell id="TV2DljBd1xC7g11wn9Fv-6" value="&quot; A função retornou: &quot;Retorno" style="shape=document;whiteSpace=wrap;html=1;boundedLbl=1;fillColor=#dae8fc;strokeColor=#6c8ebf;" vertex="1" parent="1">
          <mxGeometry x="95" y="220" width="120" height="80" as="geometry" />
        </mxCell>
        <mxCell id="TV2DljBd1xC7g11wn9Fv-8" value="" style="ellipse;whiteSpace=wrap;html=1;aspect=fixed;fillColor=#f8cecc;strokeColor=#b85450;" vertex="1" parent="1">
          <mxGeometry x="130" y="320" width="50" height="50" as="geometry" />
        </mxCell>
        <mxCell id="TV2DljBd1xC7g11wn9Fv-12" style="edgeStyle=orthogonalEdgeStyle;rounded=0;orthogonalLoop=1;jettySize=auto;html=1;exitX=0.5;exitY=1;exitDx=0;exitDy=0;entryX=0.5;entryY=0;entryDx=0;entryDy=0;" edge="1" parent="1" source="TV2DljBd1xC7g11wn9Fv-10" target="TV2DljBd1xC7g11wn9Fv-11">
          <mxGeometry relative="1" as="geometry" />
        </mxCell>
        <mxCell id="TV2DljBd1xC7g11wn9Fv-10" value="" style="ellipse;whiteSpace=wrap;html=1;aspect=fixed;fillColor=#d5e8d4;strokeColor=#82b366;" vertex="1" parent="1">
          <mxGeometry x="400" y="67" width="50" height="50" as="geometry" />
        </mxCell>
        <mxCell id="TV2DljBd1xC7g11wn9Fv-14" style="edgeStyle=orthogonalEdgeStyle;rounded=0;orthogonalLoop=1;jettySize=auto;html=1;exitX=0;exitY=0.5;exitDx=0;exitDy=0;entryX=0.5;entryY=0;entryDx=0;entryDy=0;" edge="1" parent="1" source="TV2DljBd1xC7g11wn9Fv-11" target="TV2DljBd1xC7g11wn9Fv-13">
          <mxGeometry relative="1" as="geometry" />
        </mxCell>
        <mxCell id="TV2DljBd1xC7g11wn9Fv-17" value="V" style="edgeLabel;html=1;align=center;verticalAlign=middle;resizable=0;points=[];" vertex="1" connectable="0" parent="TV2DljBd1xC7g11wn9Fv-14">
          <mxGeometry x="-0.3565" y="-4" relative="1" as="geometry">
            <mxPoint as="offset" />
          </mxGeometry>
        </mxCell>
        <mxCell id="TV2DljBd1xC7g11wn9Fv-16" style="edgeStyle=orthogonalEdgeStyle;rounded=0;orthogonalLoop=1;jettySize=auto;html=1;exitX=1;exitY=0.5;exitDx=0;exitDy=0;entryX=0.5;entryY=0;entryDx=0;entryDy=0;" edge="1" parent="1" source="TV2DljBd1xC7g11wn9Fv-11" target="TV2DljBd1xC7g11wn9Fv-15">
          <mxGeometry relative="1" as="geometry" />
        </mxCell>
        <mxCell id="TV2DljBd1xC7g11wn9Fv-18" value="F" style="edgeLabel;html=1;align=center;verticalAlign=middle;resizable=0;points=[];" vertex="1" connectable="0" parent="TV2DljBd1xC7g11wn9Fv-16">
          <mxGeometry x="-0.3588" y="2" relative="1" as="geometry">
            <mxPoint as="offset" />
          </mxGeometry>
        </mxCell>
        <mxCell id="TV2DljBd1xC7g11wn9Fv-11" value="Num &amp;gt;= 0 &amp;amp;&amp;amp; Num &amp;lt;=10" style="rhombus;whiteSpace=wrap;html=1;fillColor=#ffe6cc;strokeColor=#d79b00;" vertex="1" parent="1">
          <mxGeometry x="385" y="133" width="80" height="80" as="geometry" />
        </mxCell>
        <mxCell id="TV2DljBd1xC7g11wn9Fv-21" style="edgeStyle=orthogonalEdgeStyle;rounded=0;orthogonalLoop=1;jettySize=auto;html=1;exitX=0.5;exitY=1;exitDx=0;exitDy=0;entryX=0;entryY=0.5;entryDx=0;entryDy=0;" edge="1" parent="1" source="TV2DljBd1xC7g11wn9Fv-13" target="TV2DljBd1xC7g11wn9Fv-19">
          <mxGeometry relative="1" as="geometry" />
        </mxCell>
        <mxCell id="TV2DljBd1xC7g11wn9Fv-13" value="Retorno = 0" style="rounded=0;whiteSpace=wrap;html=1;fillColor=#e1d5e7;strokeColor=#9673a6;" vertex="1" parent="1">
          <mxGeometry x="295" y="197" width="90" height="40" as="geometry" />
        </mxCell>
        <mxCell id="TV2DljBd1xC7g11wn9Fv-20" style="edgeStyle=orthogonalEdgeStyle;rounded=0;orthogonalLoop=1;jettySize=auto;html=1;exitX=0.5;exitY=1;exitDx=0;exitDy=0;entryX=1;entryY=0.5;entryDx=0;entryDy=0;" edge="1" parent="1" source="TV2DljBd1xC7g11wn9Fv-15" target="TV2DljBd1xC7g11wn9Fv-19">
          <mxGeometry relative="1" as="geometry" />
        </mxCell>
        <mxCell id="TV2DljBd1xC7g11wn9Fv-15" value="Retorno = 1" style="rounded=0;whiteSpace=wrap;html=1;fillColor=#e1d5e7;strokeColor=#9673a6;" vertex="1" parent="1">
          <mxGeometry x="465" y="196" width="90" height="40" as="geometry" />
        </mxCell>
        <mxCell id="TV2DljBd1xC7g11wn9Fv-23" style="edgeStyle=orthogonalEdgeStyle;rounded=0;orthogonalLoop=1;jettySize=auto;html=1;exitX=0.5;exitY=1;exitDx=0;exitDy=0;entryX=0.5;entryY=0;entryDx=0;entryDy=0;" edge="1" parent="1" source="TV2DljBd1xC7g11wn9Fv-19" target="TV2DljBd1xC7g11wn9Fv-22">
          <mxGeometry relative="1" as="geometry" />
        </mxCell>
        <mxCell id="TV2DljBd1xC7g11wn9Fv-19" value="" style="ellipse;whiteSpace=wrap;html=1;aspect=fixed;fillColor=#ffe6cc;strokeColor=#d79b00;" vertex="1" parent="1">
          <mxGeometry x="409.5" y="247" width="31" height="31" as="geometry" />
        </mxCell>
        <mxCell id="TV2DljBd1xC7g11wn9Fv-22" value="return&lt;div&gt;Retorno&lt;/div&gt;" style="ellipse;whiteSpace=wrap;html=1;aspect=fixed;fillColor=#f8cecc;strokeColor=#b85450;" vertex="1" parent="1">
          <mxGeometry x="400" y="297" width="50" height="50" as="geometry" />
        </mxCell>
        <mxCell id="TV2DljBd1xC7g11wn9Fv-24" value="&lt;span style=&quot;text-wrap-mode: wrap;&quot;&gt;Retorno_Num&lt;/span&gt;" style="text;html=1;align=center;verticalAlign=middle;resizable=0;points=[];autosize=1;strokeColor=none;fillColor=none;fontSize=19;fontStyle=1" vertex="1" parent="1">
          <mxGeometry x="355" width="140" height="40" as="geometry" />
        </mxCell>
        <mxCell id="TV2DljBd1xC7g11wn9Fv-25" value="Entrada: int Num&lt;div&gt;Saída: int Retorno&lt;/div&gt;" style="text;html=1;align=center;verticalAlign=middle;resizable=0;points=[];autosize=1;strokeColor=none;fillColor=none;" vertex="1" parent="1">
          <mxGeometry x="365" y="30" width="120" height="40" as="geometry" />
        </mxCell>
      </root>
    </mxGraphModel>
  </diagram>
</mxfile>
